# Blender v2.82 (sub 7) OBJ File: 'arena.blend'
# www.blender.org
o Cube
v 10.000000 0.000000 -10.000000
v 10.000000 -2.000000 -10.000000
v 10.000000 0.000000 10.000000
v 10.000000 -2.000000 10.000000
v -10.000000 0.000000 -10.000000
v -10.000000 -2.000000 -10.000000
v -10.000000 0.000000 10.000000
v -10.000000 -2.000000 10.000000
v 10.000000 8.854460 10.000000
v -10.000000 8.854460 10.000000
v 10.000000 8.854460 -10.000000
v -10.000000 8.854460 -10.000000
v 8.995998 -2.000000 -10.000000
v -8.995998 -2.000000 -10.000000
v 8.995998 0.000000 10.000000
v -8.995998 0.000000 10.000000
v 8.995998 -2.000000 10.000000
v -8.995998 -2.000000 10.000000
v -8.995998 0.000000 -10.000000
v 8.995998 0.000000 -10.000000
v -8.995998 8.854460 10.000000
v 8.995998 8.854460 10.000000
v 8.995998 8.854460 -10.000000
v -8.995998 8.854460 -10.000000
v 10.000000 -2.000000 -8.983599
v 10.000000 -2.000000 8.983599
v -10.000000 0.000000 -8.983599
v -10.000000 0.000000 8.983599
v 10.000000 0.000000 -8.983599
v 10.000000 0.000000 8.983599
v -10.000000 -2.000000 8.983599
v -10.000000 -2.000000 -8.983599
v 8.995998 -2.000000 -8.983599
v 8.995998 -2.000000 8.983599
v -8.995998 -2.000000 8.983599
v -8.995998 -2.000000 -8.983599
v -8.995998 0.000000 8.983599
v -8.995998 0.000000 -8.983599
v 8.995998 0.000000 8.983599
v 8.995998 0.000000 -8.983599
v -10.000000 8.854460 -8.983599
v -10.000000 8.854460 8.983599
v -8.995998 8.854460 8.983599
v -8.995998 8.854460 -8.983599
v 8.995998 8.854460 8.983599
v 8.995998 8.854460 -8.983599
v 10.000000 8.854460 -8.983599
v 10.000000 8.854460 8.983599
vt 0.362450 0.512705
vt 0.137550 0.500000
vt 0.362450 0.500000
vt 0.625000 0.987450
vt 0.625000 1.000000
vt 0.625000 1.000000
vt 0.625000 0.237295
vt 0.625000 0.250000
vt 0.625000 0.250000
vt 0.625000 0.487450
vt 0.375000 0.500000
vt 0.375000 0.487450
vt 0.862450 0.737295
vt 0.637550 0.737295
vt 0.637550 0.737295
vt 0.375000 1.000000
vt 0.375000 0.987450
vt 0.625000 0.500000
vt 0.375000 0.512705
vt 0.375000 0.262550
vt 0.375000 0.250000
vt 0.625000 0.000000
vt 0.375000 0.012705
vt 0.375000 0.000000
vt 0.625000 0.750000
vt 0.375000 0.762550
vt 0.375000 0.750000
vt 0.625000 0.262550
vt 0.625000 0.500000
vt 0.625000 0.762550
vt 0.637550 0.500000
vt 0.625000 0.512705
vt 0.125000 0.512705
vt 0.125000 0.500000
vt 0.625000 0.012705
vt 0.625000 0.237295
vt 0.362450 0.750000
vt 0.137550 0.737295
vt 0.362450 0.737295
vt 0.375000 0.237295
vt 0.625000 0.737295
vt 0.375000 0.737295
vt 0.625000 0.750000
vt 0.125000 0.750000
vt 0.125000 0.737295
vt 0.625000 0.487450
vt 0.862450 0.512705
vt 0.137550 0.512705
vt 0.625000 0.512705
vt 0.625000 0.987450
vt 0.875000 0.737295
vt 0.862450 0.750000
vt 0.862450 0.737295
vt 0.875000 0.500000
vt 0.862450 0.512705
vt 0.862450 0.500000
vt 0.625000 0.737295
vt 0.875000 0.512705
vt 0.637550 0.512705
vt 0.637550 0.512705
vt 0.625000 0.762550
vt 0.625000 0.012705
vt 0.625000 0.262550
vt 0.137550 0.750000
vt 0.875000 0.750000
vt 0.637550 0.750000
vt 0.625000 0.000000
vn 0.0000 -1.0000 0.0000
vn 0.0000 0.0000 1.0000
vn -1.0000 0.0000 0.0000
vn 0.0000 0.0000 -1.0000
vn 1.0000 0.0000 0.0000
vn 0.0000 1.0000 0.0000
s off
f 33/1/1 14/2/1 13/3/1
f 16/4/2 10/5/2 7/6/2
f 27/7/3 12/8/3 5/9/3
f 20/10/4 2/11/4 13/12/4
f 37/13/4 45/14/4 39/15/4
f 16/4/2 8/16/2 18/17/2
f 1/18/5 25/19/5 2/11/5
f 5/9/4 14/20/4 6/21/4
f 7/22/3 31/23/3 8/24/3
f 3/25/2 17/26/2 4/27/2
f 13/12/4 19/28/4 20/10/4
f 20/10/4 11/29/4 1/18/4
f 18/17/2 15/30/2 16/4/2
f 23/31/6 47/32/6 11/29/6
f 14/2/1 32/33/1 6/34/1
f 28/35/3 41/36/3 27/7/3
f 17/37/1 35/38/1 34/39/1
f 27/7/3 6/21/3 32/40/3
f 30/41/5 4/27/5 26/42/5
f 2/11/1 33/1/1 13/3/1
f 30/41/5 9/43/5 3/25/5
f 35/38/1 8/44/1 31/45/1
f 19/28/4 23/46/4 20/10/4
f 35/38/1 33/1/1 34/39/1
f 39/15/6 38/47/6 37/13/6
f 31/45/1 36/48/1 35/38/1
f 34/39/1 25/19/1 26/42/1
f 26/42/5 29/49/5 30/41/5
f 32/40/3 28/35/3 27/7/3
f 15/30/2 21/50/2 16/4/2
f 26/42/1 17/37/1 34/39/1
f 42/51/6 21/52/6 43/53/6
f 12/54/6 44/55/6 24/56/6
f 44/55/6 23/31/6 24/56/6
f 21/52/6 45/14/6 43/53/6
f 45/14/6 9/43/6 48/57/6
f 43/53/6 41/58/6 42/51/6
f 48/57/6 46/59/6 45/14/6
f 39/15/3 46/59/3 40/60/3
f 38/47/5 43/53/5 37/13/5
f 29/49/5 48/57/5 30/41/5
f 3/25/2 22/61/2 15/30/2
f 40/60/2 44/55/2 38/47/2
f 7/22/3 42/62/3 28/35/3
f 5/9/4 24/63/4 19/28/4
f 1/18/5 47/32/5 29/49/5
f 33/1/1 36/48/1 14/2/1
f 16/4/2 21/50/2 10/5/2
f 27/7/3 41/36/3 12/8/3
f 20/10/4 1/18/4 2/11/4
f 37/13/4 43/53/4 45/14/4
f 16/4/2 7/6/2 8/16/2
f 1/18/5 29/49/5 25/19/5
f 5/9/4 19/28/4 14/20/4
f 7/22/3 28/35/3 31/23/3
f 3/25/2 15/30/2 17/26/2
f 13/12/4 14/20/4 19/28/4
f 20/10/4 23/46/4 11/29/4
f 18/17/2 17/26/2 15/30/2
f 23/31/6 46/59/6 47/32/6
f 14/2/1 36/48/1 32/33/1
f 28/35/3 42/62/3 41/36/3
f 17/37/1 18/64/1 35/38/1
f 27/7/3 5/9/3 6/21/3
f 30/41/5 3/25/5 4/27/5
f 2/11/1 25/19/1 33/1/1
f 30/41/5 48/57/5 9/43/5
f 35/38/1 18/64/1 8/44/1
f 19/28/4 24/63/4 23/46/4
f 35/38/1 36/48/1 33/1/1
f 39/15/6 40/60/6 38/47/6
f 31/45/1 32/33/1 36/48/1
f 34/39/1 33/1/1 25/19/1
f 26/42/5 25/19/5 29/49/5
f 32/40/3 31/23/3 28/35/3
f 15/30/2 22/61/2 21/50/2
f 26/42/1 4/27/1 17/37/1
f 42/51/6 10/65/6 21/52/6
f 12/54/6 41/58/6 44/55/6
f 44/55/6 46/59/6 23/31/6
f 21/52/6 22/66/6 45/14/6
f 45/14/6 22/66/6 9/43/6
f 43/53/6 44/55/6 41/58/6
f 48/57/6 47/32/6 46/59/6
f 39/15/3 45/14/3 46/59/3
f 38/47/5 44/55/5 43/53/5
f 29/49/5 47/32/5 48/57/5
f 3/25/2 9/43/2 22/61/2
f 40/60/2 46/59/2 44/55/2
f 7/22/3 10/67/3 42/62/3
f 5/9/4 12/8/4 24/63/4
f 1/18/5 11/29/5 47/32/5
